<svg width="23" height="32" viewBox="0 0 23 32" fill="none" xmlns="http://www.w3.org/2000/svg">
<path d="M11.5 1C5.97917 1 1.5 5.42738 1.5 10.8803C1.5 17.1546 8.16667 27.0977 10.6146 30.532C10.7162 30.677 10.8494 30.7949 11.0032 30.8763C11.1571 30.9576 11.3273 31 11.5 31C11.6727 31 11.8429 30.9576 11.9968 30.8763C12.1506 30.7949 12.2838 30.677 12.3854 30.532C14.8333 27.0991 21.5 17.1597 21.5 10.8803C21.5 5.42738 17.0208 1 11.5 1Z" stroke="white" stroke-width="2" stroke-linecap="round" stroke-linejoin="round"/>
<path d="M11.5 16C13.7091 16 15.5 14.2091 15.5 12C15.5 9.79086 13.7091 8 11.5 8C9.29086 8 7.5 9.79086 7.5 12C7.5 14.2091 9.29086 16 11.5 16Z" stroke="white" stroke-width="2" stroke-linecap="round" stroke-linejoin="round"/>
</svg>
