<svg width="18" height="17" viewBox="0 0 18 17" fill="none" xmlns="http://www.w3.org/2000/svg">
<path d="M12.4123 1.82328C13.3557 1.82599 14.2596 2.18807 14.9267 2.83043C15.5937 3.47278 15.9697 4.34323 15.9726 5.25166V12.1077C15.9697 13.0161 15.5937 13.8866 14.9267 14.5289C14.2596 15.1713 13.3557 15.5334 12.4123 15.5361H5.2926C4.34924 15.5334 3.44531 15.1713 2.77825 14.5289C2.11118 13.8866 1.73518 13.0161 1.73236 12.1077V5.25166C1.73518 4.34323 2.11118 3.47278 2.77825 2.83043C3.44531 2.18807 4.34924 1.82599 5.2926 1.82328H12.4123ZM12.4123 0.452148H5.2926C2.55129 0.452148 0.308496 2.61187 0.308496 5.25166V12.1077C0.308496 14.7475 2.55129 16.9072 5.2926 16.9072H12.4123C15.1536 16.9072 17.3964 14.7475 17.3964 12.1077V5.25166C17.3964 2.61187 15.1536 0.452148 12.4123 0.452148Z" fill="white"/>
</svg>
