<svg width="18" height="18" viewBox="0 0 18 18" fill="none" xmlns="http://www.w3.org/2000/svg">
<path d="M9.16587 0C4.37166 0 0.484352 3.88557 0.484352 8.67765C0.484352 12.2301 2.62373 15.2827 5.68164 16.627C5.65838 16.0227 5.67776 15.2944 5.83279 14.6358C5.99944 13.9307 6.94899 9.90569 6.94899 9.90569C6.94899 9.90569 6.66994 9.35172 6.66994 8.53431C6.66994 7.24816 7.41407 6.28742 8.34423 6.28742C9.13487 6.28742 9.51468 6.88013 9.51468 7.58907C9.51468 8.38323 9.00697 9.56866 8.7473 10.6689C8.53026 11.5909 9.20851 12.3385 10.1193 12.3385C11.7626 12.3385 12.871 10.2272 12.871 7.72466C12.871 5.82255 11.5882 4.40081 9.25889 4.40081C6.6273 4.40081 4.98402 6.3649 4.98402 8.55756C4.98402 9.31297 5.20881 9.84758 5.55762 10.2582C5.71652 10.448 5.73977 10.5255 5.68164 10.7425C5.63901 10.9013 5.54599 11.2848 5.50336 11.4398C5.44522 11.6606 5.26694 11.7381 5.06928 11.6567C3.85619 11.1608 3.29034 9.83596 3.29034 8.34061C3.29034 5.87678 5.37158 2.92096 9.49531 2.92096C12.809 2.92096 14.991 5.31893 14.991 7.89124C14.991 11.2964 13.0958 13.8377 10.3053 13.8377C9.36741 13.8377 8.48763 13.3303 8.18533 12.7569C8.18533 12.7569 7.68149 14.7559 7.57297 15.1433C7.39081 15.8135 7.03037 16.4798 6.70094 17.0028C7.50006 17.2384 8.32883 17.3584 9.162 17.3592C13.9562 17.3592 17.8435 13.4736 17.8435 8.68152C17.8435 3.88945 13.9601 0 9.16587 0Z" fill="white"/>
</svg>
