<svg width="136" height="136" viewBox="0 0 136 136" fill="none" xmlns="http://www.w3.org/2000/svg">
<rect x="24" y="24" width="88" height="88" rx="44" fill="#B91843"/>
<rect x="12" y="12" width="112" height="112" rx="56" stroke="#DE6049" stroke-opacity="0.32" stroke-width="24"/>
<path d="M77.7793 66.7197L64.2822 58.4712C64.0549 58.3322 63.7946 58.2562 63.5282 58.2512C63.2617 58.2461 62.9988 58.3122 62.7663 58.4425C62.5339 58.5728 62.3404 58.7627 62.2057 58.9927C62.071 59.2226 62 59.4843 62 59.7507V76.2493C62.0002 76.5157 62.0714 76.7772 62.2061 77.007C62.3408 77.2368 62.5343 77.4266 62.7667 77.5569C62.9991 77.6871 63.2619 77.7532 63.5283 77.7483C63.7946 77.7433 64.0548 77.6676 64.2822 77.5288L77.7793 69.2803C77.9986 69.1462 78.1797 68.9581 78.3054 68.7339C78.4311 68.5097 78.4971 68.257 78.4971 68C78.4971 67.743 78.4311 67.4903 78.3054 67.2661C78.1797 67.0419 77.9986 66.8538 77.7793 66.7197Z" fill="white"/>
</svg>
